<svg width="170" height="51" viewBox="0 0 170 51" fill="none" xmlns="http://www.w3.org/2000/svg">
<path d="M10.9688 27.9688L28.0625 33.7188V43.3125L0.4375 32.0625V23.75L28.0625 12.5V22.0625L10.9688 27.9688ZM72.3125 41.375C70.625 43.25 68.1562 44.7604 64.9062 45.9062C61.6562 47.0521 58.0938 47.625 54.2188 47.625C48.2604 47.625 43.5 45.8021 39.9375 42.1562C36.375 38.5104 34.4688 33.4375 34.2188 26.9375L34.1875 23C34.1875 18.5208 34.9792 14.6146 36.5625 11.2812C38.1458 7.92708 40.4062 5.35417 43.3438 3.5625C46.3021 1.75 49.7188 0.84375 53.5938 0.84375C59.2604 0.84375 63.6562 2.14583 66.7812 4.75C69.9271 7.33333 71.7604 11.1979 72.2812 16.3438H61.7188C61.3438 13.8021 60.5312 11.9896 59.2812 10.9062C58.0312 9.82292 56.2604 9.28125 53.9688 9.28125C51.2188 9.28125 49.0938 10.4479 47.5938 12.7812C46.0938 15.1146 45.3333 18.4479 45.3125 22.7812V25.5312C45.3125 30.0729 46.0833 33.4896 47.625 35.7812C49.1875 38.0521 51.6354 39.1875 54.9688 39.1875C57.8229 39.1875 59.9479 38.5521 61.3438 37.2812V30.2188H53.7188V22.6875H72.3125V41.375ZM114.406 9.96875H100.75V47H89.7812V9.96875H76.375V1.5H114.406V9.96875ZM122.188 50.9062H114.719L130.25 1.5H137.75L122.188 50.9062ZM158.594 27.875L141.594 22.0938V12.5312L169.062 23.7812V32.0938L141.594 43.3438V33.7812L158.594 27.875Z" fill="#FEFEFE"/>
</svg>
