<svg width="86" height="26" viewBox="0 0 86 26" fill="none" xmlns="http://www.w3.org/2000/svg">
<path d="M5.98438 14.4844L14.5312 17.3594V22.1562L0.71875 16.5312V12.375L14.5312 6.75V11.5312L5.98438 14.4844ZM36.6562 21.1875C35.8125 22.125 34.5781 22.8802 32.9531 23.4531C31.3281 24.026 29.5469 24.3125 27.6094 24.3125C24.6302 24.3125 22.25 23.401 20.4688 21.5781C18.6875 19.7552 17.7344 17.2188 17.6094 13.9688L17.5938 12C17.5938 9.76042 17.9896 7.80729 18.7812 6.14062C19.5729 4.46354 20.7031 3.17708 22.1719 2.28125C23.651 1.375 25.3594 0.921875 27.2969 0.921875C30.1302 0.921875 32.3281 1.57292 33.8906 2.875C35.4635 4.16667 36.3802 6.09896 36.6406 8.67188H31.3594C31.1719 7.40104 30.7656 6.49479 30.1406 5.95312C29.5156 5.41146 28.6302 5.14062 27.4844 5.14062C26.1094 5.14062 25.0469 5.72396 24.2969 6.89062C23.5469 8.05729 23.1667 9.72396 23.1562 11.8906V13.2656C23.1562 15.5365 23.5417 17.2448 24.3125 18.3906C25.0938 19.526 26.3177 20.0938 27.9844 20.0938C29.4115 20.0938 30.474 19.776 31.1719 19.1406V15.6094H27.3594V11.8438H36.6562V21.1875ZM57.7031 5.48438H50.875V24H45.3906V5.48438H38.6875V1.25H57.7031V5.48438ZM61.5938 25.9531H57.8594L65.625 1.25H69.375L61.5938 25.9531ZM79.7969 14.4375L71.2969 11.5469V6.76562L85.0312 12.3906V16.5469L71.2969 22.1719V17.3906L79.7969 14.4375Z" fill="#2B2D42"/>
</svg>
